<svg xmlns="http://www.w3.org/2000/svg" viewBox="0 0 300 400" width="300" height="400">
  <defs>
    <linearGradient id="acc" x1="0" y1="0" x2="1" y2="0">
      <stop offset="0%" stop-color="#FFD600" stop-opacity="1"/>
      <stop offset="100%" stop-color="#FFD600" stop-opacity="0"/>
    </linearGradient>
    <clipPath id="card"><rect width="300" height="400" rx="12"/></clipPath>
  </defs>
  <rect width="300" height="400" rx="12" fill="#0a0a0a"/>
  <g clip-path="url(#card)">
    <line x1="-60" y1="0" x2="240" y2="400" stroke="#FFD600" stroke-width="1" opacity="0.07"/>
<line x1="-30" y1="0" x2="270" y2="400" stroke="#FFD600" stroke-width="1" opacity="0.07"/>
<line x1="0" y1="0" x2="300" y2="400" stroke="#FFD600" stroke-width="1" opacity="0.07"/>
<line x1="30" y1="0" x2="330" y2="400" stroke="#FFD600" stroke-width="1" opacity="0.07"/>
<line x1="60" y1="0" x2="360" y2="400" stroke="#FFD600" stroke-width="1" opacity="0.07"/>
<line x1="90" y1="0" x2="390" y2="400" stroke="#FFD600" stroke-width="1" opacity="0.07"/>
<line x1="120" y1="0" x2="420" y2="400" stroke="#FFD600" stroke-width="1" opacity="0.07"/>
<line x1="150" y1="0" x2="450" y2="400" stroke="#FFD600" stroke-width="1" opacity="0.07"/>
<line x1="180" y1="0" x2="480" y2="400" stroke="#FFD600" stroke-width="1" opacity="0.07"/>
<line x1="210" y1="0" x2="510" y2="400" stroke="#FFD600" stroke-width="1" opacity="0.07"/>
<line x1="240" y1="0" x2="540" y2="400" stroke="#FFD600" stroke-width="1" opacity="0.07"/>
<line x1="270" y1="0" x2="570" y2="400" stroke="#FFD600" stroke-width="1" opacity="0.07"/>
<line x1="300" y1="0" x2="600" y2="400" stroke="#FFD600" stroke-width="1" opacity="0.07"/>
<line x1="330" y1="0" x2="630" y2="400" stroke="#FFD600" stroke-width="1" opacity="0.07"/>
<line x1="360" y1="0" x2="660" y2="400" stroke="#FFD600" stroke-width="1" opacity="0.07"/>
<line x1="390" y1="0" x2="690" y2="400" stroke="#FFD600" stroke-width="1" opacity="0.07"/>
<line x1="420" y1="0" x2="720" y2="400" stroke="#FFD600" stroke-width="1" opacity="0.07"/>
<line x1="450" y1="0" x2="750" y2="400" stroke="#FFD600" stroke-width="1" opacity="0.07"/>
<line x1="480" y1="0" x2="780" y2="400" stroke="#FFD600" stroke-width="1" opacity="0.07"/>
<line x1="510" y1="0" x2="810" y2="400" stroke="#FFD600" stroke-width="1" opacity="0.07"/>

    <circle cx="230" cy="20" r="1.5" fill="#FFD600" opacity="0.25"/>
<circle cx="242" cy="20" r="0.8" fill="#FFD600" opacity="0.25"/>
<circle cx="254" cy="20" r="1.5" fill="#FFD600" opacity="0.25"/>
<circle cx="266" cy="20" r="0.8" fill="#FFD600" opacity="0.25"/>
<circle cx="278" cy="20" r="1.5" fill="#FFD600" opacity="0.25"/>
<circle cx="290" cy="20" r="0.8" fill="#FFD600" opacity="0.25"/>
<circle cx="230" cy="32" r="0.8" fill="#FFD600" opacity="0.25"/>
<circle cx="242" cy="32" r="1.5" fill="#FFD600" opacity="0.25"/>
<circle cx="254" cy="32" r="0.8" fill="#FFD600" opacity="0.25"/>
<circle cx="266" cy="32" r="1.5" fill="#FFD600" opacity="0.25"/>
<circle cx="278" cy="32" r="0.8" fill="#FFD600" opacity="0.25"/>
<circle cx="290" cy="32" r="1.5" fill="#FFD600" opacity="0.25"/>
<circle cx="230" cy="44" r="1.5" fill="#FFD600" opacity="0.25"/>
<circle cx="242" cy="44" r="0.8" fill="#FFD600" opacity="0.25"/>
<circle cx="254" cy="44" r="1.5" fill="#FFD600" opacity="0.25"/>
<circle cx="266" cy="44" r="0.8" fill="#FFD600" opacity="0.25"/>
<circle cx="278" cy="44" r="1.5" fill="#FFD600" opacity="0.25"/>
<circle cx="290" cy="44" r="0.8" fill="#FFD600" opacity="0.25"/>
<circle cx="230" cy="56" r="0.8" fill="#FFD600" opacity="0.25"/>
<circle cx="242" cy="56" r="1.5" fill="#FFD600" opacity="0.25"/>
<circle cx="254" cy="56" r="0.8" fill="#FFD600" opacity="0.25"/>
<circle cx="266" cy="56" r="1.5" fill="#FFD600" opacity="0.25"/>
<circle cx="278" cy="56" r="0.8" fill="#FFD600" opacity="0.25"/>
<circle cx="290" cy="56" r="1.5" fill="#FFD600" opacity="0.25"/>
<circle cx="230" cy="68" r="1.5" fill="#FFD600" opacity="0.25"/>
<circle cx="242" cy="68" r="0.8" fill="#FFD600" opacity="0.25"/>
<circle cx="254" cy="68" r="1.5" fill="#FFD600" opacity="0.25"/>
<circle cx="266" cy="68" r="0.8" fill="#FFD600" opacity="0.25"/>
<circle cx="278" cy="68" r="1.5" fill="#FFD600" opacity="0.25"/>
<circle cx="290" cy="68" r="0.8" fill="#FFD600" opacity="0.25"/>
<circle cx="230" cy="80" r="0.8" fill="#FFD600" opacity="0.25"/>
<circle cx="242" cy="80" r="1.5" fill="#FFD600" opacity="0.25"/>
<circle cx="254" cy="80" r="0.8" fill="#FFD600" opacity="0.25"/>
<circle cx="266" cy="80" r="1.5" fill="#FFD600" opacity="0.25"/>
<circle cx="278" cy="80" r="0.8" fill="#FFD600" opacity="0.25"/>
<circle cx="290" cy="80" r="1.5" fill="#FFD600" opacity="0.25"/>

    <text x="155" y="260" font-family="Arial Black,sans-serif" font-size="200" font-weight="900" fill="#FFD600" opacity="0.04" text-anchor="middle" dominant-baseline="middle">CH</text>
    <circle cx="150" cy="130" r="44" fill="#FFD600" opacity="0.10"/>
    <circle cx="150" cy="130" r="44" fill="none" stroke="#FFD600" stroke-width="1.5" opacity="0.25"/>
    <path d="M90 260 Q90 195 150 185 Q210 195 210 260 L230 310 L70 310 Z" fill="#FFD600" opacity="0.08"/>
    <path d="M90 260 Q90 195 150 185 Q210 195 210 260 L230 310 L70 310 Z" fill="none" stroke="#FFD600" stroke-width="1.5" opacity="0.20"/>
    <rect x="0" y="0" width="300" height="3" fill="url(#acc)"/>
    <rect x="0" y="0" width="3" height="400" fill="#FFD600" opacity="0.6"/>
    <rect x="0" y="0" width="54" height="22" fill="#FFD600" opacity="0.15"/>
    <text x="8" y="15" font-family="'Courier New',monospace" font-size="10" fill="#FFD600" opacity="0.9" font-weight="700">LVL 10</text>
    <rect x="0" y="330" width="300" height="70" fill="#000000" opacity="0.55"/>
    <text x="20" y="370" font-family="Arial Black,Impact,sans-serif" font-size="42" font-weight="900" fill="#ffffff" letter-spacing="-1">chrizzW</text>
    <text x="20" y="390" font-family="'Courier New',monospace" font-size="10" fill="#FFD600" opacity="0.85" letter-spacing="1">VETERAN · ANCHOR</text>
    <rect x="0" y="397" width="300" height="3" fill="url(#acc)"/>
  </g>
</svg>